<svg width="800" height="600" xmlns="http://www.w3.org/2000/svg">
 <!-- Created with Method Draw - http://github.com/duopixel/Method-Draw/ -->

 <g>
  <title>background</title>
  <rect fill="#fff" id="canvas_background" height="602" width="802" y="-1" x="-1"/>
 </g>
 <g>
  <title>Layer 1</title>
  <path stroke="#cccccc" id="svg_1" d="m157.230408,65.449662l-42.188682,0l-34.512584,26.656326l0,32.585079l104.181298,80.466031l76.701266,-59.246529l-104.181298,-80.460907zm-51.53667,30.914575c-4.106745,-3.171908 -4.106745,-8.311527 0,-11.47831c4.106745,-3.171908 10.761133,-3.171908 14.867878,0c4.11338,3.177032 4.106745,8.306402 0,11.483435c-4.106745,3.171908 -10.761133,3.171908 -14.867878,-0.005124z" stroke-width="0" fill="none"/>
  <path stroke="null" transform="rotate(4.223908424377441 197.63375854492168,183.5781249999999) " id="svg_3" d="m178.697668,155.078128l-58.143209,0l-47.564235,10.875658l0,13.294561l143.579621,32.829769l105.707444,-24.17231l-143.579621,-32.827678zm-71.026332,12.613004c-5.659797,-1.294124 -5.659797,-3.391064 0,-4.683098c5.659797,-1.294124 14.830679,-1.294124 20.490475,0c5.66894,1.296215 5.659797,3.388974 0,4.685188c-5.659797,1.294124 -14.830679,1.294124 -20.490475,-0.002091z" fill-opacity="0" stroke-width="0" fill="#000000"/>
  <path id="svg_6" d="m342.072932,-46.28117c-7.179756,0 -12.999996,8.507027 -12.999996,18.99932c0,3.585324 0.688076,6.935974 1.871887,9.797822l-1.871887,7.997679l5.212044,-2.605218c2.171907,2.380138 4.862939,3.810397 7.787951,3.810397c7.179752,0 13.000007,-8.507058 13.000007,-19.00068s-5.820255,-18.99932 -13.000007,-18.99932l0.000001,0zm-2.13207,26.295564l-2.171035,4.227262l-5.970609,-11.636759l5.969718,-11.639485l2.171926,4.236931l-3.798699,7.402555l3.798699,7.409497zm6.566057,4.221754l-2.170142,-4.232788l3.799746,-7.401176l-3.799746,-7.403982l2.170142,-4.23279l5.970617,11.628467l-5.970617,11.642269z" stroke-opacity="null" stroke-width="0" stroke="null" fill="#ffffff"/>
  <path transform="rotate(-10 391.9271850585938,261.33401489257795) " id="svg_7" d="m391.927071,69.834019c-130.616328,0 -236.499909,85.741871 -236.499909,191.493137c0,36.136292 12.517683,69.907317 34.05395,98.751724l-34.05395,80.608186l94.819093,-26.257852c39.511997,23.989283 88.468076,38.404787 141.680799,38.404787c130.616243,0 236.500112,-85.742183 236.500112,-191.506846s-105.883869,-191.493137 -236.500112,-191.493137l0.000017,0zm-38.787273,265.031588l-39.496129,42.60635l-108.619148,-117.286279l108.602941,-117.313753l39.512336,42.703798l-69.1071,74.609955l69.1071,74.679929zm119.451714,42.550835l-39.479888,-42.662047l69.126139,-74.596063l-69.126139,-74.624342l39.479888,-42.662066l108.619301,117.202705l-108.619301,117.341812z" stroke-width="0" fill="#000000"/>
 </g>
</svg>