<svg width="580" height="400" xmlns="http://www.w3.org/2000/svg">
 <!-- Created with Method Draw - http://github.com/duopixel/Method-Draw/ -->
 <g>
  <title>Layer 1</title>
  <path id="svg_2" d="m295.947167,129.63409c-34.518055,0 -62.499971,27.535904 -62.499971,61.497801c0,11.605129 3.308055,22.450655 8.999458,31.714003l-8.999458,25.887227l25.057898,-8.432679c10.441859,7.704131 23.379511,12.333653 37.442069,12.333653c34.518032,0 62.500025,-27.536004 62.500025,-61.502204s-27.981993,-61.497801 -62.500025,-61.497801l0.000004,0zm-10.250336,85.114591l-10.437665,13.68298l-28.704847,-37.666354l28.700564,-37.675177l10.441949,13.714276l-18.262974,23.960901l18.262974,23.983374zm31.567575,13.665152l-10.433373,-13.700868l18.268006,-23.95644l-18.268006,-23.965522l10.433373,-13.700873l28.704887,37.639514l-28.704887,37.684188z" stroke-width="1.5" stroke="#000" fill="#000000"/>
 </g>
</svg>