<svg width="566.93" height="170.04" xmlns="http://www.w3.org/2000/svg">

 <g>
  <title>background</title>
  <rect fill="none" id="canvas_background" height="602" width="802" y="-1" x="-1"/>
 </g>
 <g>
  <title>Layer 1</title>
  <path fill="#ffffff" id="svg_9" d="m553.52,83.671c-5.124,0 -9.111,-4.115 -9.111,-9.112s4.039,-9.159 9.159,-9.159c5.124,0 9.111,4.114 9.111,9.107c0,4.997 -4.04,9.164 -9.16,9.164l0.001,0zm0.05,-17.365c-4.667,0 -8.198,3.71 -8.198,8.253c0,4.541 3.506,8.201 8.151,8.201c4.666,0 8.201,-3.707 8.201,-8.253c0,-4.541 -3.51,-8.201 -8.15,-8.201l-0.004,0zm2.02,9.138l2.577,3.608l-2.173,0l-2.32,-3.31l-1.995,0l0,3.31l-1.819,0l0,-9.564l4.265,0c2.222,0 3.683,1.137 3.683,3.051c0.01,1.568 -0.9,2.526 -2.21,2.905l-0.008,0zm-1.54,-4.315l-2.372,0l0,3.025l2.372,0c1.184,0 1.891,-0.579 1.891,-1.514c0,-0.984 -0.71,-1.511 -1.89,-1.511l-0.001,0z"/>
  <path stroke="null" id="svg_11" d="m136.454819,2.128999c-46.668414,0 -84.499969,37.162278 -84.499969,82.997035c0,15.662207 4.472491,30.299258 12.167268,42.801014l-12.167268,34.937234l33.878281,-11.380689c14.117395,10.397445 31.609102,16.645419 50.621682,16.645419c46.668384,0 84.500042,-37.162413 84.500042,-83.002977s-37.831658,-82.997035 -84.500042,-82.997035l0.000006,0zm-13.858455,114.870102l-14.111725,18.466462l-38.808957,-50.834268l38.803166,-50.846176l14.117516,18.508698l-24.691544,32.337478l24.691544,32.367806zm42.679366,18.442401l-14.105922,-18.490602l24.698346,-32.331457l-24.698346,-32.343713l14.105922,-18.49061l38.809011,50.798046l-38.809011,50.858337z" stroke-opacity="null" stroke-width="null" fill="#ffffff"/>
  <text font-weight="bold" font-style="normal" stroke="null" transform="matrix(2.918349973144661,0,0,4.779436847350306,-575.0533761044229,-268.4839700232258) " xml:space="preserve" text-anchor="start" font-family="Helvetica, Arial, sans-serif" font-size="24" id="svg_13" y="84.346923" x="277.044676" fill-opacity="null" stroke-opacity="null" stroke-width="0" fill="#ffffff">Camargo</text>
  <line stroke-linecap="null" stroke-linejoin="null" id="svg_15" y2="122.020004" x2="256.964996" y1="60.020004" x1="253.964996" fill-opacity="null" stroke-opacity="null" stroke-width="null" stroke="null" fill="none"/>
  <line stroke-linecap="null" stroke-linejoin="null" id="svg_16" y2="101.020004" x2="204.964996" y1="91.020004" x1="244.964996" fill-opacity="null" stroke-opacity="null" stroke-width="null" stroke="null" fill="none"/>
  <line stroke-linecap="null" stroke-linejoin="null" id="svg_17" y2="49.020004" x2="225.964996" y1="85.020004" x1="225.964996" fill-opacity="null" stroke-opacity="null" stroke-width="null" stroke="null" fill="none"/>
 </g>
</svg>